<?xml version="1.0" standalone="no"?>
<!DOCTYPE svg PUBLIC "-//W3C//DTD SVG 20010904//EN"
 "http://www.w3.org/TR/2001/REC-SVG-20010904/DTD/svg10.dtd">
<svg version="1.0" xmlns="http://www.w3.org/2000/svg"
 width="500.000000pt" height="500.000000pt" viewBox="0 0 500.000000 500.000000"
 preserveAspectRatio="xMidYMid meet">

<g transform="translate(0.000000,500.000000) scale(0.100000,-0.100000)"
fill="#000000" stroke="none">
<path d="M3178 3223 l-3 -588 -23 -57 c-33 -81 -108 -160 -190 -200 l-67 -33
-347 -3 -348 -3 0 495 0 496 -140 0 -140 0 0 -555 0 -555 468 0 c381 0 479 3
531 15 189 45 340 206 371 396 6 39 10 287 10 622 l0 557 -60 0 -59 0 -3 -587z"/>
<path d="M2360 3011 l0 -520 136 -3 c75 -2 138 -1 140 1 2 2 4 238 4 523 l0
518 -140 0 -140 0 0 -519z"/>
<path d="M2480 1870 l0 -120 25 0 c23 0 25 3 25 50 l0 50 34 0 c69 0 108 64
70 118 -13 19 -24 22 -85 22 l-69 0 0 -120z m118 53 c3 -20 -1 -23 -32 -23
-32 0 -36 3 -36 26 0 23 3 25 33 22 24 -2 33 -8 35 -25z"/>
<path d="M2739 1948 c-2 -24 -3 -78 -1 -120 l4 -78 69 0 c62 0 69 2 69 19 0
17 -8 20 -47 23 -46 3 -48 4 -51 36 -3 32 -3 32 42 32 39 0 46 3 46 20 0 17
-7 20 -45 20 -41 0 -45 2 -45 25 0 23 3 25 50 25 43 0 50 3 50 20 0 18 -7 20
-69 20 l-69 0 -3 -42z"/>
<path d="M2980 1870 l0 -120 25 0 c23 0 25 3 25 50 0 37 4 50 15 50 8 0 31
-22 52 -50 29 -39 43 -50 65 -50 l28 0 -40 51 -41 52 21 22 c25 27 26 76 2 98
-13 12 -37 17 -85 17 l-67 0 0 -120z m124 63 c8 -21 -18 -43 -51 -43 -19 0
-23 5 -23 30 0 27 3 30 34 30 23 0 36 -6 40 -17z"/>
<path d="M3270 1970 c0 -16 7 -20 30 -20 l30 0 0 -100 0 -100 25 0 25 0 0 100
0 100 30 0 c23 0 30 4 30 20 0 18 -7 20 -85 20 -78 0 -85 -2 -85 -20z"/>
<path d="M2165 1630 c-3 -5 -1 -10 4 -10 6 0 11 5 11 10 0 6 -2 10 -4 10 -3 0
-8 -4 -11 -10z"/>
<path d="M2580 1630 c0 -5 5 -10 10 -10 6 0 10 5 10 10 0 6 -4 10 -10 10 -5 0
-10 -4 -10 -10z"/>
<path d="M2913 1565 c0 -44 2 -61 4 -37 2 23 2 59 0 80 -2 20 -4 1 -4 -43z"/>
<path d="M2950 1630 c0 -5 5 -10 10 -10 6 0 10 5 10 10 0 6 -4 10 -10 10 -5 0
-10 -4 -10 -10z"/>
<path d="M3017 1633 c-4 -3 -7 -14 -7 -24 0 -9 -6 -20 -12 -22 -10 -4 -10 -6
0 -6 7 -1 13 -18 14 -48 l1 -48 6 44 c4 31 12 46 25 51 19 6 19 7 -2 12 -25 7
-21 34 6 41 13 4 12 5 -4 6 -11 0 -24 -2 -27 -6z"/>
<path d="M3080 1630 c0 -5 5 -10 11 -10 5 0 7 5 4 10 -3 6 -8 10 -11 10 -2 0
-4 -4 -4 -10z"/>
<path d="M3310 1611 c0 -25 -3 -28 -27 -23 -18 3 -30 -1 -40 -13 -30 -43 -4
-85 52 -83 l35 1 0 74 c0 42 -4 73 -10 73 -5 0 -10 -13 -10 -29z m-12 -43 c28
-28 -3 -83 -33 -58 -18 15 -20 56 -2 63 19 8 22 8 35 -5z"/>
<path d="M1679 1603 c-3 -10 -2 -38 1 -63 4 -35 9 -45 25 -47 11 -2 14 0 8 3
-14 6 -18 80 -4 86 4 2 0 11 -9 21 -17 17 -18 17 -21 0z"/>
<path d="M2099 1603 c-3 -10 -2 -38 1 -63 4 -35 9 -45 25 -47 11 -2 14 0 8 3
-14 6 -18 80 -4 86 4 2 0 11 -9 21 -17 17 -18 17 -21 0z"/>
<path d="M1752 1578 c-17 -17 -15 -54 3 -72 9 -9 31 -15 50 -14 35 1 35 2 35
48 l0 47 -38 1 c-21 1 -44 -4 -50 -10z m56 -10 c27 -27 2 -75 -32 -62 -16 6
-23 54 -9 67 10 11 28 8 41 -5z"/>
<path d="M1875 1566 c15 -23 15 -27 0 -50 -10 -14 -13 -26 -9 -26 5 0 15 10
22 21 l14 21 14 -21 c22 -30 38 -26 17 5 -14 21 -14 29 -4 46 16 25 5 38 -12
14 -12 -16 -14 -16 -26 -2 -21 25 -33 19 -16 -8z"/>
<path d="M1982 1578 c-16 -16 -15 -63 1 -77 7 -6 28 -9 45 -8 31 2 32 4 32 47
0 45 -1 46 -33 48 -18 1 -38 -3 -45 -10z m58 -17 c20 -38 -16 -74 -45 -45 -18
18 -18 20 -5 45 14 24 36 24 50 0z"/>
<path d="M2173 1540 c0 -30 2 -43 4 -27 2 15 2 39 0 55 -2 15 -4 2 -4 -28z"/>
<path d="M2214 1565 c-15 -23 -15 -27 0 -50 19 -29 47 -32 70 -9 19 18 20 38
6 65 -15 27 -56 24 -76 -6z m50 9 c20 -8 21 -48 1 -64 -30 -25 -61 30 -33 58
14 14 12 14 32 6z"/>
<path d="M2320 1538 c0 -59 18 -64 22 -5 2 34 7 42 23 42 16 0 21 -8 23 -42 4
-49 22 -59 22 -12 0 50 -16 69 -55 67 -35 -1 -35 -1 -35 -50z"/>
<path d="M2497 1583 c-14 -14 -6 -34 18 -45 31 -14 27 -34 -6 -30 -19 3 -21 1
-12 -8 7 -8 22 -10 37 -6 37 9 34 41 -5 55 -33 11 -31 36 3 25 14 -4 18 -2 14
5 -8 12 -39 15 -49 4z"/>
<path d="M2580 1540 c0 -27 5 -50 10 -50 6 0 10 23 10 50 0 28 -4 50 -10 50
-5 0 -10 -22 -10 -50z"/>
<path d="M2631 1536 l2 -51 6 42 c4 24 10 45 13 49 14 14 28 -10 28 -47 0 -53
18 -50 22 4 2 29 8 42 18 42 10 0 16 -13 18 -42 2 -24 6 -43 11 -43 4 0 4 21
1 48 l-5 47 -57 1 -58 1 1 -51z"/>
<path d="M2780 1518 c0 -39 4 -68 10 -68 6 0 10 11 10 24 0 19 4 22 25 18 33
-6 55 14 55 48 0 36 -18 50 -63 48 l-37 -1 0 -69z m78 46 c20 -36 -15 -77 -44
-53 -17 14 -18 41 -2 57 17 17 35 15 46 -4z"/>
<path d="M2950 1540 c0 -27 5 -50 10 -50 6 0 10 23 10 50 0 28 -4 50 -10 50
-5 0 -10 -22 -10 -50z"/>
<path d="M3083 1540 c0 -30 2 -43 4 -27 2 15 2 39 0 55 -2 15 -4 2 -4 -28z"/>
<path d="M3131 1576 c-21 -26 -9 -69 22 -80 20 -7 30 -6 40 4 10 10 9 12 -5 7
-21 -7 -48 1 -48 14 0 5 16 9 35 9 37 0 42 9 25 41 -13 22 -52 25 -69 5z m57
-13 c2 -8 -6 -13 -22 -13 -25 0 -33 10 -19 24 10 10 36 3 41 -11z"/>
</g>
</svg>
